<svg xmlns="http://www.w3.org/2000/svg" viewBox="0 0 320 320" width="320" height="320"><rect width="320" height="320" rx="64" fill="#19180F"/><g transform="translate(160,148) scale(2.4) translate(-50,-50)"><rect x="41" y="-14" width="18" height="10" rx="3" fill="#F3CD3E"/><rect x="46" y="-5" width="8" height="8" fill="#F3CD3E"/><path d="M26.0 8.4 A48 48 0 1 1 26.0 91.6" fill="none" stroke="#F3CD3E" stroke-width="8"/><polygon points="31.5,82.0 20.5,101.1 12.1,83.6" fill="#F3CD3E"/><line x1="50.0" y1="24.0" x2="50.0" y2="12.0" stroke="#F3CD3E" stroke-width="4.2" stroke-linecap="round"/><line x1="65.0" y1="24.0" x2="69.0" y2="17.1" stroke="#F3CD3E" stroke-width="3.2" stroke-linecap="round"/><line x1="76.0" y1="35.0" x2="82.9" y2="31.0" stroke="#F3CD3E" stroke-width="3.2" stroke-linecap="round"/><line x1="76.0" y1="50.0" x2="88.0" y2="50.0" stroke="#F3CD3E" stroke-width="4.2" stroke-linecap="round"/><line x1="76.0" y1="65.0" x2="82.9" y2="69.0" stroke="#F3CD3E" stroke-width="3.2" stroke-linecap="round"/><line x1="65.0" y1="76.0" x2="69.0" y2="82.9" stroke="#F3CD3E" stroke-width="3.2" stroke-linecap="round"/><line x1="50.0" y1="76.0" x2="50.0" y2="88.0" stroke="#F3CD3E" stroke-width="4.2" stroke-linecap="round"/><line x1="47.2" y1="55.3" x2="65.5" y2="20.9" stroke="#FFFFFF" stroke-width="8" stroke-linecap="round"/><circle cx="50" cy="50" r="8.5" fill="#FFFFFF"/></g></svg>
